<svg width="85" height="68" viewBox="0 0 85 68" fill="none" xmlns="http://www.w3.org/2000/svg">
<path d="M25.5 6.375C25.5 2.85414 28.3555 0 31.875 0H53.125C56.6445 0 59.5 2.85414 59.5 6.375V68H48.875V57.375C48.875 53.8555 46.0195 51 42.5 51C38.9805 51 36.125 53.8555 36.125 57.375V68H25.5V6.375ZM41.4375 8.5C40.2687 8.5 39.3125 9.45094 39.3125 10.625V13.8125H36.125C34.9562 13.8125 34 14.7687 34 15.9375V18.0625C34 19.2313 34.9562 20.1875 36.125 20.1875H39.3125V23.375C39.3125 24.5438 40.2687 25.5 41.4375 25.5H43.5625C44.7313 25.5 45.6875 24.5438 45.6875 23.375V20.1875H48.875C50.0438 20.1875 51 19.2313 51 18.0625V15.9375C51 14.7687 50.0438 13.8125 48.875 13.8125H45.6875V10.625C45.6875 9.45094 44.7313 8.5 43.5625 8.5H41.4375ZM21.25 12.75V68H6.375C2.85414 68 0 65.1445 0 61.625V42.5H10.625C11.7991 42.5 12.75 41.5438 12.75 40.375C12.75 39.2062 11.7991 38.25 10.625 38.25H0V29.75H10.625C11.7991 29.75 12.75 28.7938 12.75 27.625C12.75 26.4562 11.7991 25.5 10.625 25.5H0V19.125C0 15.6055 2.85414 12.75 6.375 12.75H21.25ZM78.625 12.75C82.1445 12.75 85 15.6055 85 19.125V25.5H74.375C73.2062 25.5 72.25 26.4562 72.25 27.625C72.25 28.7938 73.2062 29.75 74.375 29.75H85V38.25H74.375C73.2062 38.25 72.25 39.2062 72.25 40.375C72.25 41.5438 73.2062 42.5 74.375 42.5H85V61.625C85 65.1445 82.1445 68 78.625 68H63.75V12.75H78.625Z" fill="#D7F4E7"/>
</svg>
