<svg width="73" height="63" viewBox="0 0 73 63" fill="none" xmlns="http://www.w3.org/2000/svg">
<path d="M72.0115 41.3807C70.3487 39.1892 67.1777 38.7155 64.9231 40.3386L49.7528 51.1876H34.4684C33.3597 51.1876 32.5547 50.2955 32.5547 49.2201C32.5547 48.1434 33.4735 47.2514 34.4684 47.2514H44.3855C46.2992 47.2514 48.2827 45.9126 48.6147 43.9758C49.0266 41.5149 47.0787 39.3764 44.6073 39.3764H24.2193C20.9115 39.3764 17.4871 40.5145 14.8256 42.6063L8.93236 47.2501L1.91372 47.1393C0.918964 47.1393 0 48.1482 0 49.2188V61.0288C0 62.1141 0.918964 63 1.91372 63H45.7771C48.5691 63 51.3433 62.1155 53.5967 60.5058L70.7188 48.2602C73.1901 46.6471 73.6717 43.5709 72.0115 41.3807ZM20.2778 21.6562H28.3889V29.5312C28.3889 30.6141 29.3014 31.5 30.4167 31.5H38.5278C39.6431 31.5 40.5556 30.6141 40.5556 29.5312V21.6562H48.6667C49.7865 21.6562 50.6944 20.7747 50.6944 19.6875V11.8125C50.6944 10.725 49.7865 9.84375 48.6667 9.84375H40.5556V1.96875C40.5556 0.881262 39.6431 0 38.5278 0H30.4167C29.3014 0 28.3889 0.881262 28.3889 1.96875V9.84375H20.2778C19.1625 9.84375 18.25 10.7248 18.25 11.8125V19.6875C18.25 20.7703 19.1625 21.6562 20.2778 21.6562Z" fill="#D7F4E7"/>
</svg>
