<svg width="73" height="84" viewBox="0 0 73 84" fill="none" xmlns="http://www.w3.org/2000/svg">
<path d="M57.3571 21C57.3571 32.5992 48.0203 42 36.3534 42C24.9797 42 15.4962 32.5992 15.4962 21C15.4962 9.40242 24.9797 0 36.3534 0C48.0203 0 57.3571 9.40242 57.3571 21ZM46.7819 59.3906C42.4313 60.5555 38.9605 64.6734 38.9605 69.5625V73.5C38.9605 74.1891 39.3842 74.8617 39.873 75.3539L42.4801 77.9789C43.4904 79.0125 45.1525 79.0125 46.1627 77.9789C47.1893 76.9617 47.1893 75.2883 46.1627 74.2711L44.1748 72.4172V69.5625C44.1748 66.6586 46.6516 64.3125 49.3891 64.3125C52.4199 64.3125 54.75 66.6586 54.75 69.5625V72.4172L52.9087 74.2711C51.8821 75.2883 51.8821 76.9617 52.9087 77.9789C53.919 79.0125 55.581 79.0125 56.5913 77.9789L59.1984 75.3539C59.6873 74.8617 59.9643 74.1891 59.9643 73.5V69.5625C59.9643 64.6734 56.6402 60.5555 52.1429 59.3906V50.6625C64.1194 53.5992 73 64.3289 73 77.4375V78.75C73 81.6539 70.6699 84 67.7857 84H5.21429C2.33502 84 0 81.6539 0 78.75V77.4375C0 64.4766 8.88547 53.5992 20.8571 50.6625V60.7523C17.0931 61.8844 14.3393 65.3953 14.3393 69.5625C14.3393 74.632 18.4292 78.75 23.4643 78.75C28.4993 78.75 32.5893 74.632 32.5893 69.5625C32.5893 65.3953 29.8355 61.8844 26.0714 60.7523V49.9078C26.5114 49.8914 26.935 49.875 27.375 49.875H45.625C46.065 49.875 46.4886 49.8914 46.9286 49.9078L46.7819 59.3906ZM27.2283 69.5625C27.2283 71.7445 25.6315 73.5 23.3176 73.5C21.2971 73.5 19.4069 71.7445 19.4069 69.5625C19.4069 67.3805 21.2971 65.625 23.3176 65.625C25.6315 65.625 27.2283 67.3805 27.2283 69.5625Z" fill="#D7F4E7"/>
</svg>
